<!DOCTYPE svg PUBLIC "-//W3C//DTD SVG 1.1//EN" "http://www.w3.org/Graphics/SVG/1.1/DTD/svg11.dtd">
<!-- Uploaded to: SVG Repo, www.svgrepo.com, Transformed by: SVG Repo Mixer Tools -->
<svg width="800px" height="800px" viewBox="-2.4 -2.4 28.80 28.80" fill="none" xmlns="http://www.w3.org/2000/svg">
<g id="SVGRepo_bgCarrier" stroke-width="0">
<path transform="translate(-2.4, -2.4), scale(0.8999999999999999)" d="M16,28.9384264839547C18.50234506086712,29.17818039621101,20.994963088935798,30.880355468958925,23.35393010709654,30.01174315652139C25.70338817108789,29.146632204894058,27.32142950021803,26.772861571978048,28.223736435635352,24.437436054566426C29.071775486642277,22.24247116873508,28.001985498374033,19.8259170473996,28.195348434408093,17.480783392992322C28.379837798504546,15.243269702433835,29.99170124642348,13.089509584551173,29.33646134984115,10.942147361071365C28.679914475202438,8.790501889090002,26.331428343221603,7.7251745541643775,24.734942512805112,6.140288113760796C23.04501622167815,4.462640111466963,21.853080010980143,2.135380650227192,19.6233269920762,1.2995845245294415C17.34486871734768,0.445531818944064,14.821187400412782,1.061645425230242,12.433255456307613,1.529148541710418C9.96170303523494,2.0130226580762347,7.209652791470538,2.287880813438144,5.437082309890819,4.0769306781516C3.6742039357282676,5.856198329044131,3.7546778641488023,8.680597667381573,2.985851082658952,11.06438434317003C2.254811953970216,13.331008472822848,0.9012355822102236,15.441436985049858,1.004364058587658,17.820799855685284C1.1102479581493734,20.26373538682985,2.080680999196413,22.64058600367575,3.5716008507626658,24.57870452577925C5.031847655844872,26.476949677454677,7.090343831494165,27.87727929717117,9.350256584992575,28.670027513307467C11.474446991921065,29.4151660825817,13.759169518911182,28.723728725861314,16,28.9384264839547" fill="#9f1239" strokewidth="0"/>
</g>
<g id="SVGRepo_tracerCarrier" stroke-linecap="round" stroke-linejoin="round"/>
<g id="SVGRepo_iconCarrier"> <path d="M21 12C21 17.5228 18.9277 22 16.3714 22H8.65714C9.5236 21.4385 10.3126 20.4506 10.8562 19.2763C11.73 17.3884 12.2571 14.8154 12.2571 12C12.2571 9.18462 11.73 6.61163 10.8562 4.72375C10.3126 3.54939 9.5236 2.56147 8.65714 2H16.3714C18.9277 2 21 6.47715 21 12Z" fill="#1C274C"/> <path fill-rule="evenodd" clip-rule="evenodd" d="M4.31038 5.13411C3.50898 6.86553 3 9.29254 3 12C3 14.7075 3.50898 17.1345 4.31038 18.8659C5.1335 20.6442 6.16457 21.5 7.11429 21.5C8.064 21.5 9.09507 20.6442 9.91819 18.8659C10.7196 17.1345 11.2286 14.7075 11.2286 12C11.2286 9.29254 10.7196 6.86553 9.91819 5.13411C9.09507 3.35577 8.064 2.5 7.11429 2.5C6.16457 2.5 5.1335 3.35577 4.31038 5.13411ZM5.57143 12C5.57143 15.3137 6.26219 18 7.11429 18C7.90107 18 8.5503 15.7097 8.64521 12.75H7.62857C7.20252 12.75 6.85714 12.4142 6.85714 12C6.85714 11.5858 7.20252 11.25 7.62857 11.25H8.64521C8.5503 8.29027 7.90107 6 7.11429 6C6.26219 6 5.57143 8.68629 5.57143 12Z" fill="#1C274C"/> </g>
</svg>